# 3ds Max Wavefront OBJ Exporter v0.99 - (c)2007 guruware
# File Created: 31.03.2022 19:54:50

mtllib Octagono_v2.mtl

#
# object Torus001
#

v  -23.5304 8.8146 178.1342
v  -23.5304 10.0191 178.6331
v  -13.3436 10.0191 182.8526
v  -12.9908 8.8146 182.4998
v  -23.5304 10.5180 179.8376
v  -14.1953 10.5180 183.7043
v  -23.5304 10.0191 181.0421
v  -15.0470 10.0191 184.5560
v  -23.5304 8.8146 181.5410
v  -15.3998 8.8146 184.9088
v  -23.5304 7.6101 181.0421
v  -15.0470 7.6101 184.5560
v  -23.5304 7.1111 179.8376
v  -14.1953 7.1111 183.7043
v  -23.5304 7.6101 178.6331
v  -13.3436 7.6101 182.8526
v  -9.1240 10.0191 193.0395
v  -8.6251 8.8146 193.0395
v  -10.3285 10.5180 193.0395
v  -11.5330 10.0191 193.0395
v  -12.0319 8.8146 193.0395
v  -11.5330 7.6101 193.0395
v  -10.3285 7.1111 193.0395
v  -9.1240 7.6101 193.0395
v  -13.3436 10.0191 203.2264
v  -12.9908 8.8146 203.5792
v  -14.1953 10.5180 202.3747
v  -15.0470 10.0191 201.5230
v  -15.3998 8.8146 201.1702
v  -15.0470 7.6101 201.5230
v  -14.1953 7.1111 202.3747
v  -13.3436 7.6101 203.2264
v  -23.5304 10.0191 207.4459
v  -23.5304 8.8146 207.9449
v  -23.5304 10.5180 206.2414
v  -23.5304 10.0191 205.0369
v  -23.5304 8.8146 204.5380
v  -23.5304 7.6101 205.0369
v  -23.5304 7.1111 206.2414
v  -23.5304 7.6101 207.4459
v  -33.7173 10.0191 203.2264
v  -34.0701 8.8146 203.5792
v  -32.8656 10.5180 202.3747
v  -32.0139 10.0191 201.5230
v  -31.6611 8.8146 201.1702
v  -32.0139 7.6101 201.5230
v  -32.8656 7.1111 202.3747
v  -33.7173 7.6101 203.2264
v  -37.9369 10.0191 193.0395
v  -38.4358 8.8146 193.0395
v  -36.7324 10.5180 193.0395
v  -35.5279 10.0191 193.0395
v  -35.0290 8.8146 193.0395
v  -35.5279 7.6101 193.0395
v  -36.7324 7.1111 193.0395
v  -37.9369 7.6101 193.0395
v  -33.7173 10.0191 182.8526
v  -34.0701 8.8146 182.4998
v  -32.8656 10.5180 183.7043
v  -32.0139 10.0191 184.5560
v  -31.6611 8.8146 184.9088
v  -32.0139 7.6101 184.5560
v  -32.8656 7.1111 183.7043
v  -33.7173 7.6101 182.8526
# 64 vertices

vn -0.0000 0.0000 -1.0000
vn -0.0000 0.6630 -0.7486
vn 0.5294 0.6630 -0.5294
vn 0.7071 0.0000 -0.7071
vn 0.0000 0.9955 -0.0949
vn 0.0671 0.9955 -0.0671
vn 0.0000 0.7574 0.6530
vn -0.4617 0.7574 0.4617
vn 0.0000 0.0000 1.0000
vn -0.7071 0.0000 0.7071
vn 0.0000 -0.7574 0.6530
vn -0.4617 -0.7574 0.4617
vn 0.0000 -0.9955 -0.0949
vn 0.0671 -0.9955 -0.0671
vn 0.0000 -0.6630 -0.7486
vn 0.5294 -0.6630 -0.5294
vn 0.7486 0.6630 -0.0000
vn 1.0000 0.0000 0.0000
vn 0.0949 0.9955 -0.0000
vn -0.6530 0.7574 -0.0000
vn -1.0000 0.0000 -0.0000
vn -0.6530 -0.7574 0.0000
vn 0.0949 -0.9955 -0.0000
vn 0.7486 -0.6630 -0.0000
vn 0.5294 0.6630 0.5294
vn 0.7071 0.0000 0.7071
vn 0.0671 0.9955 0.0671
vn -0.4617 0.7574 -0.4617
vn -0.7071 0.0000 -0.7071
vn -0.4617 -0.7574 -0.4617
vn 0.0671 -0.9955 0.0671
vn 0.5294 -0.6630 0.5294
vn -0.0000 0.6630 0.7486
vn -0.0000 0.0000 1.0000
vn -0.0000 0.9955 0.0949
vn 0.0000 0.7574 -0.6530
vn 0.0000 0.0000 -1.0000
vn 0.0000 -0.7574 -0.6530
vn -0.0000 -0.9955 0.0949
vn -0.0000 -0.6630 0.7486
vn -0.5294 0.6630 0.5294
vn -0.0671 0.9955 0.0671
vn 0.4617 0.7574 -0.4617
vn 0.4617 -0.7574 -0.4617
vn -0.0671 -0.9955 0.0671
vn -0.5294 -0.6630 0.5294
vn -0.7486 0.6630 -0.0000
vn -0.0949 0.9955 0.0000
vn 0.6530 0.7574 0.0000
vn 0.6530 -0.7574 0.0000
vn -0.0949 -0.9955 -0.0000
vn -0.7486 -0.6630 -0.0000
vn -0.5294 0.6630 -0.5294
vn -0.0671 0.9955 -0.0671
vn 0.4617 0.7574 0.4617
vn 0.4617 -0.7574 0.4617
vn -0.0671 -0.9955 -0.0671
vn -0.5294 -0.6630 -0.5294
# 58 vertex normals

vt 0.1775 0.3935 0.0000
vt 0.1950 0.3990 0.0000
vt 0.2680 0.5007 0.0000
vt 0.2599 0.4928 0.0000
vt 0.2180 0.4018 0.0000
vt 0.2698 0.5078 0.0000
vt 0.2404 0.4023 0.0000
vt 0.2739 0.5109 0.0000
vt 0.2585 0.4012 0.0000
vt 0.2857 0.5096 0.0000
vt 0.1512 0.3760 0.0000
vt 0.1630 0.3749 0.0000
vt 0.1956 0.4837 0.0000
vt 0.1769 0.4855 0.0000
vt 0.1671 0.3782 0.0000
vt 0.2188 0.4839 0.0000
vt 0.1693 0.3856 0.0000
vt 0.2424 0.4870 0.0000
vt 0.1996 0.6110 0.0000
vt 0.1847 0.6037 0.0000
vt 0.2171 0.6185 0.0000
vt 0.2350 0.6230 0.0000
vt 0.2524 0.6235 0.0000
vt 0.1562 0.5961 0.0000
vt 0.1414 0.5960 0.0000
vt 0.1666 0.5966 0.0000
vt 0.1745 0.5989 0.0000
vt 0.1998 0.7375 0.0000
vt 0.1903 0.7324 0.0000
vt 0.2069 0.7398 0.0000
vt 0.2168 0.7399 0.0000
vt 0.2317 0.7394 0.0000
vt 0.1422 0.7119 0.0000
vt 0.1259 0.7086 0.0000
vt 0.1593 0.7176 0.0000
vt 0.1761 0.7250 0.0000
vt 0.1339 0.8511 0.0000
vt 0.1225 0.8467 0.0000
vt 0.1496 0.8517 0.0000
vt 0.1683 0.8503 0.0000
vt 0.1866 0.8497 0.0000
vt 0.0942 0.8183 0.0000
vt 0.0805 0.8102 0.0000
vt 0.1054 0.8283 0.0000
vt 0.1140 0.8386 0.0000
vt 0.0970 0.9800 0.0000
vt 0.0700 0.9713 0.0000
vt 0.1246 0.9761 0.0000
vt 0.1482 0.9664 0.0000
vt 0.1671 0.9615 0.0000
vt 0.0315 0.9119 0.0000
vt 0.0200 0.9003 0.0000
vt 0.0399 0.9295 0.0000
vt 0.0506 0.9517 0.0000
vt 0.3397 0.0280 0.0000
vt 0.3595 0.0470 0.0000
vt 0.2981 0.1612 0.0000
vt 0.2887 0.1534 0.0000
vt 0.3708 0.0688 0.0000
vt 0.3079 0.1716 0.0000
vt 0.3796 0.0861 0.0000
vt 0.3198 0.1816 0.0000
vt 0.3915 0.0973 0.0000
vt 0.3338 0.1892 0.0000
vt 0.2437 0.0406 0.0000
vt 0.2623 0.0352 0.0000
vt 0.2460 0.1518 0.0000
vt 0.2281 0.1525 0.0000
vt 0.2853 0.0248 0.0000
vt 0.2634 0.1500 0.0000
vt 0.3126 0.0200 0.0000
vt 0.2777 0.1497 0.0000
vt 0.2543 0.2827 0.0000
vt 0.2436 0.2776 0.0000
vt 0.2654 0.2869 0.0000
vt 0.2787 0.2903 0.0000
vt 0.2941 0.2935 0.0000
vt 0.2045 0.2639 0.0000
vt 0.1880 0.2628 0.0000
vt 0.2190 0.2668 0.0000
vt 0.2320 0.2719 0.0000
# 81 texture coords

o Torus001
g Torus001
usemtl wire_115115115
s 1
f 1/1/1 2/2/2 3/3/3 4/4/4 
f 2/2/2 5/5/5 6/6/6 3/3/3 
f 5/5/5 7/7/7 8/8/8 6/6/6 
f 7/7/7 9/9/9 10/10/10 8/8/8 
f 9/11/9 11/12/11 12/13/12 10/14/10 
f 11/12/11 13/15/13 14/16/14 12/13/12 
f 13/15/13 15/17/15 16/18/16 14/16/14 
f 15/17/15 1/1/1 4/4/4 16/18/16 
f 4/4/4 3/3/3 17/19/17 18/20/18 
f 3/3/3 6/6/6 19/21/19 17/19/17 
f 6/6/6 8/8/8 20/22/20 19/21/19 
f 8/8/8 10/10/10 21/23/21 20/22/20 
f 10/14/10 12/13/12 22/24/22 21/25/21 
f 12/13/12 14/16/14 23/26/23 22/24/22 
f 14/16/14 16/18/16 24/27/24 23/26/23 
f 16/18/16 4/4/4 18/20/18 24/27/24 
f 18/20/18 17/19/17 25/28/25 26/29/26 
f 17/19/17 19/21/19 27/30/27 25/28/25 
f 19/21/19 20/22/20 28/31/28 27/30/27 
f 20/22/20 21/23/21 29/32/29 28/31/28 
f 21/25/21 22/24/22 30/33/30 29/34/29 
f 22/24/22 23/26/23 31/35/31 30/33/30 
f 23/26/23 24/27/24 32/36/32 31/35/31 
f 24/27/24 18/20/18 26/29/26 32/36/32 
f 26/29/26 25/28/25 33/37/33 34/38/34 
f 25/28/25 27/30/27 35/39/35 33/37/33 
f 27/30/27 28/31/28 36/40/36 35/39/35 
f 28/31/28 29/32/29 37/41/37 36/40/36 
f 29/34/29 30/33/30 38/42/38 37/43/37 
f 30/33/30 31/35/31 39/44/39 38/42/38 
f 31/35/31 32/36/32 40/45/40 39/44/39 
f 32/36/32 26/29/26 34/38/34 40/45/40 
f 34/38/34 33/37/33 41/46/41 42/47/10 
f 33/37/33 35/39/35 43/48/42 41/46/41 
f 35/39/35 36/40/36 44/49/43 43/48/42 
f 36/40/36 37/41/37 45/50/4 44/49/43 
f 37/43/37 38/42/38 46/51/44 45/52/4 
f 38/42/38 39/44/39 47/53/45 46/51/44 
f 39/44/39 40/45/40 48/54/46 47/53/45 
f 40/45/40 34/38/34 42/47/10 48/54/46 
f 42/55/10 41/56/41 49/57/47 50/58/21 
f 41/56/41 43/59/42 51/60/48 49/57/47 
f 43/59/42 44/61/43 52/62/49 51/60/48 
f 44/61/43 45/63/4 53/64/18 52/62/49 
f 45/65/4 46/66/44 54/67/50 53/68/18 
f 46/66/44 47/69/45 55/70/51 54/67/50 
f 47/69/45 48/71/46 56/72/52 55/70/51 
f 48/71/46 42/55/10 50/58/21 56/72/52 
f 50/58/21 49/57/47 57/73/53 58/74/29 
f 49/57/47 51/60/48 59/75/54 57/73/53 
f 51/60/48 52/62/49 60/76/55 59/75/54 
f 52/62/49 53/64/18 61/77/26 60/76/55 
f 53/68/18 54/67/50 62/78/56 61/79/26 
f 54/67/50 55/70/51 63/80/57 62/78/56 
f 55/70/51 56/72/52 64/81/58 63/80/57 
f 56/72/52 50/58/21 58/74/29 64/81/58 
f 58/74/29 57/73/53 2/2/2 1/1/1 
f 57/73/53 59/75/54 5/5/5 2/2/2 
f 59/75/54 60/76/55 7/7/7 5/5/5 
f 60/76/55 61/77/26 9/9/9 7/7/7 
f 61/79/26 62/78/56 11/12/11 9/11/9 
f 62/78/56 63/80/57 13/15/13 11/12/11 
f 63/80/57 64/81/58 15/17/15 13/15/13 
f 64/81/58 58/74/29 1/1/1 15/17/15 
# 64 polygons

#
# object Torus002
#

v  -23.5304 8.8146 183.9479
v  -23.5304 9.5492 184.2522
v  -17.3169 9.5492 186.8260
v  -17.1017 8.8146 186.6108
v  -23.5304 9.8536 184.9869
v  -17.8364 9.8536 187.3455
v  -23.5304 9.5492 185.7216
v  -18.3559 9.5492 187.8650
v  -23.5304 8.8146 186.0259
v  -18.5711 8.8146 188.0802
v  -23.5304 8.0799 185.7216
v  -18.3559 8.0799 187.8650
v  -23.5304 7.7756 184.9869
v  -17.8364 7.7756 187.3455
v  -23.5304 8.0799 184.2522
v  -17.3169 8.0799 186.8260
v  -14.7432 9.5492 193.0395
v  -14.4389 8.8146 193.0395
v  -15.4779 9.8536 193.0395
v  -16.2126 9.5492 193.0395
v  -16.5169 8.8146 193.0395
v  -16.2126 8.0799 193.0395
v  -15.4779 7.7756 193.0395
v  -14.7432 8.0799 193.0395
v  -17.3169 9.5492 199.2530
v  -17.1017 8.8146 199.4682
v  -17.8364 9.8536 198.7335
v  -18.3559 9.5492 198.2140
v  -18.5711 8.8146 197.9988
v  -18.3559 8.0799 198.2140
v  -17.8364 7.7756 198.7335
v  -17.3169 8.0799 199.2530
v  -23.5304 9.5492 201.8268
v  -23.5304 8.8146 202.1311
v  -23.5304 9.8536 201.0921
v  -23.5304 9.5492 200.3574
v  -23.5304 8.8146 200.0531
v  -23.5304 8.0799 200.3574
v  -23.5304 7.7756 201.0921
v  -23.5304 8.0799 201.8268
v  -29.7440 9.5492 199.2530
v  -29.9592 8.8146 199.4682
v  -29.2245 9.8536 198.7335
v  -28.7050 9.5492 198.2140
v  -28.4898 8.8146 197.9988
v  -28.7050 8.0799 198.2140
v  -29.2245 7.7756 198.7335
v  -29.7440 8.0799 199.2530
v  -32.3177 9.5492 193.0395
v  -32.6220 8.8146 193.0395
v  -31.5830 9.8536 193.0395
v  -30.8483 9.5492 193.0395
v  -30.5440 8.8146 193.0395
v  -30.8483 8.0799 193.0395
v  -31.5830 7.7756 193.0395
v  -32.3177 8.0799 193.0395
v  -29.7440 9.5492 186.8260
v  -29.9592 8.8146 186.6108
v  -29.2245 9.8536 187.3455
v  -28.7050 9.5492 187.8650
v  -28.4898 8.8146 188.0802
v  -28.7050 8.0799 187.8650
v  -29.2245 7.7756 187.3455
v  -29.7440 8.0799 186.8260
# 64 vertices

vn -0.0000 0.0000 -1.0000
vn -0.0000 0.6630 -0.7486
vn 0.5294 0.6630 -0.5294
vn 0.7071 0.0000 -0.7071
vn 0.0000 0.9955 -0.0949
vn 0.0671 0.9955 -0.0671
vn 0.0000 0.7574 0.6530
vn -0.4617 0.7574 0.4617
vn 0.0000 0.0000 1.0000
vn -0.7071 0.0000 0.7071
vn 0.0000 -0.7574 0.6530
vn -0.4617 -0.7574 0.4617
vn 0.0000 -0.9955 -0.0949
vn 0.0671 -0.9955 -0.0671
vn 0.0000 -0.6630 -0.7486
vn 0.5294 -0.6630 -0.5294
vn 0.7486 0.6630 -0.0000
vn 1.0000 0.0000 0.0000
vn 0.0949 0.9955 -0.0000
vn -0.6530 0.7574 -0.0000
vn -1.0000 0.0000 -0.0000
vn -0.6530 -0.7574 0.0000
vn 0.0949 -0.9955 -0.0000
vn 0.7486 -0.6630 -0.0000
vn 0.5294 0.6630 0.5294
vn 0.7071 0.0000 0.7071
vn 0.0671 0.9955 0.0671
vn -0.4617 0.7574 -0.4617
vn -0.7071 0.0000 -0.7071
vn -0.4617 -0.7574 -0.4617
vn 0.0671 -0.9955 0.0671
vn 0.5294 -0.6630 0.5294
vn -0.0000 0.6630 0.7486
vn -0.0000 0.0000 1.0000
vn -0.0000 0.9955 0.0949
vn 0.0000 0.7574 -0.6530
vn 0.0000 0.0000 -1.0000
vn 0.0000 -0.7574 -0.6530
vn -0.0000 -0.9955 0.0949
vn -0.0000 -0.6630 0.7486
vn -0.5294 0.6630 0.5294
vn -0.0671 0.9955 0.0671
vn 0.4617 0.7574 -0.4617
vn 0.4617 -0.7574 -0.4617
vn -0.0671 -0.9955 0.0671
vn -0.5294 -0.6630 0.5294
vn -0.7486 0.6630 -0.0000
vn -0.0949 0.9955 0.0000
vn 0.6530 0.7574 0.0000
vn 0.6530 -0.7574 0.0000
vn -0.0949 -0.9955 -0.0000
vn -0.7486 -0.6630 -0.0000
vn -0.5294 0.6630 -0.5294
vn -0.0671 0.9955 -0.0671
vn 0.4617 0.7574 0.4617
vn 0.4617 -0.7574 0.4617
vn -0.0671 -0.9955 -0.0671
vn -0.5294 -0.6630 -0.5294
# 58 vertex normals

vt 0.7206 0.2529 0.0000
vt 0.7306 0.2482 0.0000
vt 0.8007 0.2778 0.0000
vt 0.7942 0.2790 0.0000
vt 0.7421 0.2406 0.0000
vt 0.8040 0.2781 0.0000
vt 0.7523 0.2321 0.0000
vt 0.8070 0.2761 0.0000
vt 0.7599 0.2241 0.0000
vt 0.8120 0.2701 0.0000
vt 0.7018 0.2609 0.0000
vt 0.7070 0.2549 0.0000
vt 0.7612 0.2994 0.0000
vt 0.7533 0.3077 0.0000
vt 0.7103 0.2530 0.0000
vt 0.7717 0.2909 0.0000
vt 0.7140 0.2537 0.0000
vt 0.7839 0.2836 0.0000
vt 0.8118 0.3565 0.0000
vt 0.8018 0.3606 0.0000
vt 0.8235 0.3507 0.0000
vt 0.8339 0.3434 0.0000
vt 0.8419 0.3356 0.0000
vt 0.7888 0.3668 0.0000
vt 0.7834 0.3730 0.0000
vt 0.7923 0.3637 0.0000
vt 0.7957 0.3625 0.0000
vt 0.8746 0.3999 0.0000
vt 0.8682 0.4019 0.0000
vt 0.8787 0.3983 0.0000
vt 0.8829 0.3945 0.0000
vt 0.8886 0.3878 0.0000
vt 0.8393 0.4166 0.0000
vt 0.8315 0.4231 0.0000
vt 0.8487 0.4108 0.0000
vt 0.8589 0.4057 0.0000
vt 0.9037 0.4739 0.0000
vt 0.8971 0.4772 0.0000
vt 0.9101 0.4674 0.0000
vt 0.9167 0.4588 0.0000
vt 0.9236 0.4504 0.0000
vt 0.8722 0.4794 0.0000
vt 0.8631 0.4829 0.0000
vt 0.8814 0.4780 0.0000
vt 0.8898 0.4780 0.0000
vt 0.9485 0.5419 0.0000
vt 0.9340 0.5506 0.0000
vt 0.9576 0.5280 0.0000
vt 0.9625 0.5136 0.0000
vt 0.9677 0.5030 0.0000
vt 0.8919 0.5450 0.0000
vt 0.8820 0.5460 0.0000
vt 0.9032 0.5480 0.0000
vt 0.9175 0.5517 0.0000
vt 0.6205 0.0364 0.0000
vt 0.6372 0.0353 0.0000
vt 0.6635 0.1096 0.0000
vt 0.6554 0.1108 0.0000
vt 0.6515 0.0390 0.0000
vt 0.6732 0.1090 0.0000
vt 0.6629 0.0418 0.0000
vt 0.6832 0.1073 0.0000
vt 0.6727 0.0407 0.0000
vt 0.6924 0.1036 0.0000
vt 0.5869 0.0848 0.0000
vt 0.5918 0.0741 0.0000
vt 0.6387 0.1282 0.0000
vt 0.6323 0.1365 0.0000
vt 0.5965 0.0594 0.0000
vt 0.6442 0.1201 0.0000
vt 0.6057 0.0452 0.0000
vt 0.6493 0.1141 0.0000
vt 0.7106 0.1716 0.0000
vt 0.7044 0.1736 0.0000
vt 0.7159 0.1698 0.0000
vt 0.7217 0.1664 0.0000
vt 0.7289 0.1609 0.0000
vt 0.6786 0.1881 0.0000
vt 0.6708 0.1956 0.0000
vt 0.6871 0.1816 0.0000
vt 0.6962 0.1768 0.0000
# 81 texture coords

o Torus002
g Torus002
usemtl wire_115115115
s 1
f 65/82/59 66/83/60 67/84/61 68/85/62 
f 66/83/60 69/86/63 70/87/64 67/84/61 
f 69/86/63 71/88/65 72/89/66 70/87/64 
f 71/88/65 73/90/67 74/91/68 72/89/66 
f 73/92/67 75/93/69 76/94/70 74/95/68 
f 75/93/69 77/96/71 78/97/72 76/94/70 
f 77/96/71 79/98/73 80/99/74 78/97/72 
f 79/98/73 65/82/59 68/85/62 80/99/74 
f 68/85/62 67/84/61 81/100/75 82/101/76 
f 67/84/61 70/87/64 83/102/77 81/100/75 
f 70/87/64 72/89/66 84/103/78 83/102/77 
f 72/89/66 74/91/68 85/104/79 84/103/78 
f 74/95/68 76/94/70 86/105/80 85/106/79 
f 76/94/70 78/97/72 87/107/81 86/105/80 
f 78/97/72 80/99/74 88/108/82 87/107/81 
f 80/99/74 68/85/62 82/101/76 88/108/82 
f 82/101/76 81/100/75 89/109/83 90/110/84 
f 81/100/75 83/102/77 91/111/85 89/109/83 
f 83/102/77 84/103/78 92/112/86 91/111/85 
f 84/103/78 85/104/79 93/113/87 92/112/86 
f 85/106/79 86/105/80 94/114/88 93/115/87 
f 86/105/80 87/107/81 95/116/89 94/114/88 
f 87/107/81 88/108/82 96/117/90 95/116/89 
f 88/108/82 82/101/76 90/110/84 96/117/90 
f 90/110/84 89/109/83 97/118/91 98/119/92 
f 89/109/83 91/111/85 99/120/93 97/118/91 
f 91/111/85 92/112/86 100/121/94 99/120/93 
f 92/112/86 93/113/87 101/122/95 100/121/94 
f 93/115/87 94/114/88 102/123/96 101/124/95 
f 94/114/88 95/116/89 103/125/97 102/123/96 
f 95/116/89 96/117/90 104/126/98 103/125/97 
f 96/117/90 90/110/84 98/119/92 104/126/98 
f 98/119/92 97/118/91 105/127/99 106/128/68 
f 97/118/91 99/120/93 107/129/100 105/127/99 
f 99/120/93 100/121/94 108/130/101 107/129/100 
f 100/121/94 101/122/95 109/131/62 108/130/101 
f 101/124/95 102/123/96 110/132/102 109/133/62 
f 102/123/96 103/125/97 111/134/103 110/132/102 
f 103/125/97 104/126/98 112/135/104 111/134/103 
f 104/126/98 98/119/92 106/128/68 112/135/104 
f 106/136/68 105/137/99 113/138/105 114/139/79 
f 105/137/99 107/140/100 115/141/106 113/138/105 
f 107/140/100 108/142/101 116/143/107 115/141/106 
f 108/142/101 109/144/62 117/145/76 116/143/107 
f 109/146/62 110/147/102 118/148/108 117/149/76 
f 110/147/102 111/150/103 119/151/109 118/148/108 
f 111/150/103 112/152/104 120/153/110 119/151/109 
f 112/152/104 106/136/68 114/139/79 120/153/110 
f 114/139/79 113/138/105 121/154/111 122/155/87 
f 113/138/105 115/141/106 123/156/112 121/154/111 
f 115/141/106 116/143/107 124/157/113 123/156/112 
f 116/143/107 117/145/76 125/158/84 124/157/113 
f 117/149/76 118/148/108 126/159/114 125/160/84 
f 118/148/108 119/151/109 127/161/115 126/159/114 
f 119/151/109 120/153/110 128/162/116 127/161/115 
f 120/153/110 114/139/79 122/155/87 128/162/116 
f 122/155/87 121/154/111 66/83/60 65/82/59 
f 121/154/111 123/156/112 69/86/63 66/83/60 
f 123/156/112 124/157/113 71/88/65 69/86/63 
f 124/157/113 125/158/84 73/90/67 71/88/65 
f 125/160/84 126/159/114 75/93/69 73/92/67 
f 126/159/114 127/161/115 77/96/71 75/93/69 
f 127/161/115 128/162/116 79/98/73 77/96/71 
f 128/162/116 122/155/87 65/82/59 79/98/73 
# 64 polygons

